<svg width="245.168945" height="36.000000" viewBox="0 0 245.169 36" fill="none" xmlns="http://www.w3.org/2000/svg" xmlns:xlink="http://www.w3.org/1999/xlink">
	<desc>
			Created with Pixso.
	</desc>
	<defs/>
	<path id="Vector" d="M20.8163 31.9437L20.2534 31.9437C20.2534 31.9377 20.2506 31.9318 20.2495 31.9261L20.234 31.8573C20.2242 31.812 20.2135 31.7671 20.2025 31.7225C20.1978 31.7015 20.1926 31.6807 20.1875 31.6597C20.1729 31.601 20.1575 31.5421 20.1417 31.4834L20.137 31.4666C20.1196 31.403 20.1014 31.3396 20.0825 31.2765L20.0635 31.2155C20.0505 31.172 20.0367 31.129 20.024 31.0859C20.0166 31.0624 20.0087 31.0392 20.0012 31.016C19.9873 30.9745 19.9731 30.9329 19.9585 30.8917C19.951 30.87 19.9431 30.8479 19.9357 30.8267C19.9172 30.775 19.8983 30.7238 19.8788 30.6729C19.8745 30.662 19.8708 30.6515 19.8666 30.6406C19.8436 30.5807 19.8196 30.5212 19.7952 30.4617C19.7864 30.4401 19.7773 30.4187 19.7683 30.3973C19.7517 30.36 19.7351 30.3187 19.7181 30.2798L19.6862 30.2076C19.6696 30.1702 19.6526 30.1328 19.6353 30.0953C19.6246 30.0721 19.6135 30.0486 19.6024 30.0254C19.5823 29.9823 19.563 29.9397 19.5405 29.8973C19.5322 29.8812 19.5247 29.8647 19.5164 29.8484C19.4884 29.7926 19.4596 29.7361 19.4304 29.6821L19.3909 29.6122L19.3352 29.5107L19.2917 29.4359C19.2737 29.4045 19.2555 29.373 19.2369 29.3416C19.2223 29.3162 19.2073 29.2908 19.1924 29.2667C19.1718 29.2327 19.1528 29.1995 19.1304 29.1658L19.0735 29.0745C19.0466 29.0325 19.0198 28.9902 18.9922 28.9486C18.9749 28.9225 18.9574 28.8966 18.9397 28.8708C18.9219 28.845 18.9026 28.8154 18.8837 28.7881C18.8646 28.7607 18.8441 28.7335 18.8268 28.7065C18.8094 28.6796 18.7905 28.6553 18.772 28.6317C18.7534 28.6082 18.7324 28.5767 18.7123 28.5493L18.6566 28.4745C18.6172 28.4247 18.5808 28.375 18.5421 28.3248L18.488 28.2563C18.4652 28.2275 18.4415 28.1991 18.4182 28.1707L18.3661 28.1078C18.342 28.0789 18.3175 28.0504 18.2931 28.0216L18.2418 27.9625L18.1652 27.8757L18.1198 27.8256C18.0254 27.7219 17.9287 27.6198 17.8297 27.5201L17.7863 27.4764L17.6954 27.3877L17.6509 27.345C17.6193 27.3147 17.5876 27.2848 17.5557 27.2552L17.5229 27.2252C17.4113 27.1223 17.2964 27.0221 17.1794 26.9259L17.1476 26.8993C17.1115 26.8694 17.0752 26.8398 17.0386 26.8105L17.0022 26.7814C16.9628 26.7515 16.9269 26.7219 16.8885 26.6924L16.8693 26.6777C16.7401 26.579 16.6079 26.4828 16.4745 26.3904L16.4559 26.3772C16.4137 26.3484 16.3715 26.3199 16.3289 26.2919L16.3008 26.2736C16.2573 26.2448 16.2135 26.2167 16.1697 26.1886L16.1622 26.1841C16.017 26.092 15.8689 26.0039 15.7181 25.9196L15.7122 25.9158C15.6644 25.8892 15.6167 25.8634 15.569 25.8375L15.548 25.8263C15.2938 25.6904 15.0327 25.5657 14.7648 25.4521L14.7483 25.4449C14.6776 25.415 14.6066 25.3862 14.5347 25.3578L15.9475 25.3578C16.1776 25.3578 16.3644 25.1067 16.3644 24.7964C16.3644 24.4862 16.1776 24.2351 15.9475 24.2351L15.5267 24.2351C15.5527 24.1722 15.5815 24.1011 15.6128 24.021C16.0106 23.786 16.7109 23.2853 17.4056 22.3654L17.4113 22.3583C17.4639 22.2893 17.5155 22.2181 17.5664 22.1445L17.5767 22.1299C17.6272 22.0577 17.6776 21.9833 17.7274 21.9054L17.7408 21.8848C17.7645 21.8474 17.7882 21.8099 17.8119 21.7726C17.8119 21.7726 17.8119 21.7695 17.8147 21.7677C17.8391 21.7302 17.8632 21.6891 17.8873 21.649L17.9027 21.6232C17.9232 21.5887 17.9441 21.5536 17.9642 21.5181C17.9683 21.5117 17.9722 21.5054 17.9757 21.4985C17.999 21.4581 18.0223 21.417 18.0452 21.3755L18.061 21.3467C18.08 21.3123 18.0985 21.2775 18.1171 21.2422C18.1226 21.2325 18.1281 21.2224 18.1332 21.2123C18.1553 21.17 18.1774 21.1273 18.1996 21.084L18.215 21.0536C18.2323 21.0184 18.25 20.9825 18.2675 20.9465L18.2864 20.9092C18.3077 20.865 18.3286 20.8201 18.3495 20.7748L18.3625 20.746C18.3799 20.7086 18.3969 20.6711 18.4138 20.6337L18.434 20.5887C18.4537 20.5435 18.4735 20.4978 18.4924 20.4518C18.496 20.4436 18.4995 20.4349 18.5027 20.4268C18.5205 20.3845 18.5378 20.3414 18.5552 20.298L18.575 20.2487C18.5911 20.2074 18.6073 20.1659 18.623 20.1244L18.6349 20.0929C18.6534 20.0436 18.6716 19.993 18.6898 19.9432L18.7087 19.8901C18.723 19.8505 18.7368 19.8101 18.7506 19.7695C18.7557 19.7546 18.7609 19.7396 18.7656 19.7247C18.783 19.673 18.8003 19.6202 18.8173 19.5675C18.8229 19.5492 18.8287 19.53 18.8342 19.5128L18.8738 19.3898C18.8789 19.3717 18.8844 19.3523 18.8895 19.3362C18.9058 19.282 18.9219 19.2266 18.9373 19.1708C18.9425 19.1532 18.9471 19.1353 18.9519 19.1173C18.9637 19.0742 18.9756 19.0312 18.9871 18.9874C18.9922 18.9675 18.9973 18.9478 19.0028 18.9279C19.0175 18.8702 19.0321 18.8123 19.0463 18.7535L19.0581 18.7045C19.0692 18.6577 19.0802 18.6106 19.0908 18.563L19.1051 18.4994C19.1185 18.4384 19.132 18.3774 19.1445 18.3153C19.1473 18.3033 19.1497 18.2909 19.1521 18.2778C19.1631 18.2244 19.1738 18.17 19.1841 18.1158C19.1884 18.0938 19.1924 18.0717 19.1967 18.0496C19.2069 17.9938 19.2168 17.9373 19.2267 17.8815C19.2286 17.8695 19.231 17.8579 19.233 17.8463C19.244 17.7805 19.2549 17.7141 19.2654 17.6472C19.2689 17.6248 19.2725 17.6023 19.2756 17.5795C19.2839 17.5253 19.2917 17.4706 19.2997 17.4152L19.3068 17.3644C19.3163 17.2954 19.3253 17.2262 19.334 17.1559C19.3368 17.1338 19.3391 17.1117 19.3419 17.0892C19.3488 17.0333 19.3551 16.9772 19.3608 16.9209C19.3633 16.9006 19.3656 16.8807 19.3676 16.8606C19.3752 16.7882 19.3823 16.7152 19.3889 16.6416C19.3889 16.6211 19.3925 16.6005 19.394 16.5795C19.3992 16.5204 19.4043 16.4609 19.4087 16.401C19.4087 16.3789 19.4122 16.3568 19.4138 16.3347C19.4193 16.2584 19.4244 16.1816 19.4292 16.1042C19.4292 16.0867 19.4292 16.0668 19.4319 16.0511C19.4355 15.9867 19.4391 15.922 19.4418 15.8568C19.4418 15.8333 19.4418 15.8097 19.4449 15.7861C19.4481 15.7057 19.4513 15.6249 19.4536 15.5428C19.4536 15.5316 19.4536 15.52 19.4536 15.5084C19.4558 15.4355 19.4573 15.3619 19.4584 15.2876C19.4584 15.2633 19.4584 15.239 19.4584 15.2147C19.4584 15.1348 19.4584 15.0544 19.4584 14.9736L19.4584 14.955C19.4584 14.8689 19.4584 14.7816 19.4584 14.693L19.4584 14.6182C19.4584 14.5432 19.4552 14.4647 19.4532 14.3868L19.4532 14.3446C19.4504 14.2548 19.4469 14.1638 19.4434 14.0725C19.4434 14.049 19.441 14.0249 19.4402 14.0013C19.4368 13.9246 19.4329 13.8472 19.4283 13.7693C19.4283 13.7502 19.4283 13.7319 19.4252 13.7113C19.4197 13.6178 19.4137 13.5234 19.4071 13.4283L19.4023 13.3622C19.3964 13.2828 19.3905 13.2031 19.3838 13.1227C19.3838 13.0995 19.3802 13.0762 19.3783 13.053C19.37 12.9557 19.3608 12.8573 19.3514 12.7585C19.3514 12.7397 19.3474 12.7211 19.3458 12.702C19.3376 12.6178 19.3285 12.5328 19.3195 12.4471C19.3167 12.4213 19.314 12.3959 19.3108 12.37C19.2997 12.2682 19.2878 12.166 19.2753 12.0624C19.2753 12.0497 19.2717 12.037 19.2701 12.025C19.2588 11.9321 19.2468 11.8389 19.2341 11.745C19.2302 11.7174 19.2267 11.6897 19.2228 11.662C19.208 11.5557 19.1929 11.4485 19.1774 11.3405C17.5984 0.684326 6.40881 2.4137 6.40881 2.4137L6.76721 4.70325L0 11.4808L0.295654 14.0979L2.85913 15.5948C2.97351 15.3195 3.12012 15.0573 3.29651 14.8131C4.95056 13.0044 8.15942 11.5845 9.078 11.2899C9.26196 11.2312 9.36658 11.2017 9.36658 11.2017C4.97266 16.593 5.47241 22.7695 5.66821 24.2418C5.46448 24.2792 5.30701 24.5123 5.30701 24.7968C5.30701 25.1067 5.49377 25.3582 5.72388 25.3582L7.13672 25.3582C4.78699 26.2906 2.92188 28.0665 1.94849 30.2982C1.94739 30.3013 1.94604 30.3042 1.94458 30.3071C1.87268 30.4728 1.80591 30.6409 1.74402 30.8113C1.74414 30.813 1.74414 30.8148 1.74402 30.8165C1.72742 30.8629 1.71118 30.9093 1.69543 30.9561C1.68958 30.9729 1.68359 30.9897 1.6781 31.007C1.66382 31.049 1.65076 31.0912 1.63855 31.1339C1.63147 31.1555 1.62476 31.1776 1.61804 31.1993C1.60547 31.2394 1.59326 31.2798 1.58142 31.3202L1.56006 31.3951C1.54895 31.4325 1.53796 31.4725 1.52771 31.5115C1.52014 31.5392 1.51306 31.5665 1.50598 31.5942C1.49646 31.6316 1.48657 31.6691 1.47754 31.7064C1.46851 31.7439 1.45984 31.7812 1.45105 31.8209C1.44238 31.8606 1.4314 31.9071 1.42188 31.9504L0.858521 31.9504C0.750244 31.9482 0.642578 31.9664 0.541748 32.0042C0.44104 32.042 0.349243 32.0984 0.271729 32.1702C0.194336 32.2421 0.13269 32.3279 0.0906982 32.4225C0.0487061 32.5172 0.0270996 32.6189 0.0270996 32.7216C0.0270996 32.8243 0.0487061 32.926 0.0906982 33.0206C0.13269 33.1154 0.194336 33.2012 0.271729 33.2729C0.349243 33.3448 0.44104 33.4012 0.541748 33.439C0.642578 33.4767 0.750244 33.495 0.858521 33.4927L20.8235 33.4927C20.9318 33.495 21.0394 33.4767 21.1403 33.439C21.241 33.4012 21.3328 33.3448 21.4103 33.2729C21.4877 33.2012 21.5493 33.1154 21.5913 33.0206C21.6333 32.926 21.6549 32.8243 21.6549 32.7216C21.6549 32.6189 21.6333 32.5172 21.5913 32.4225C21.5493 32.3279 21.4877 32.2421 21.4103 32.1702C21.3328 32.0984 21.241 32.042 21.1403 32.0042C21.0394 31.9664 20.9318 31.9482 20.8235 31.9504L20.8163 31.9437Z" fill="#595653" fill-opacity="1.000000" fill-rule="nonzero"/>
	<path id="Vector" d="" fill="#E7DBD0" fill-opacity="0" fill-rule="evenodd"/>
	<path id="Vector" d="M44.2035 31.9437L43.6406 31.9437C43.6406 31.9377 43.6378 31.9318 43.6367 31.9261L43.6212 31.8573C43.6115 31.812 43.6007 31.7671 43.5897 31.7225C43.585 31.7015 43.5798 31.6807 43.5747 31.6597C43.5601 31.601 43.5447 31.5421 43.5289 31.4834L43.5242 31.4666C43.5068 31.403 43.4886 31.3396 43.4697 31.2765L43.4507 31.2155C43.4377 31.172 43.424 31.129 43.4113 31.0859C43.4038 31.0624 43.3959 31.0392 43.3884 31.016C43.3745 30.9745 43.3604 30.9329 43.3457 30.8917C43.3383 30.87 43.3303 30.8479 43.3229 30.8267C43.3044 30.775 43.2855 30.7238 43.266 30.6729C43.2617 30.662 43.2581 30.6515 43.2538 30.6406C43.2308 30.5807 43.2068 30.5212 43.1824 30.4617C43.1736 30.4401 43.1646 30.4187 43.1555 30.3973C43.1389 30.36 43.1223 30.3187 43.1053 30.2798L43.0734 30.2076C43.0568 30.1702 43.0398 30.1328 43.0225 30.0953C43.0118 30.0721 43.0007 30.0486 42.9896 30.0254C42.9695 29.9823 42.9502 29.9397 42.9277 29.8973C42.9194 29.8812 42.9119 29.8647 42.9036 29.8484C42.8756 29.7926 42.8468 29.7361 42.8176 29.6821L42.7781 29.6122L42.7224 29.5107L42.679 29.4359C42.6609 29.4045 42.6427 29.373 42.6241 29.3416C42.6095 29.3162 42.5945 29.2908 42.5796 29.2667C42.559 29.2327 42.54 29.1995 42.5176 29.1658L42.4607 29.0745C42.4338 29.0325 42.407 28.9902 42.3794 28.9486C42.3621 28.9225 42.3446 28.8966 42.3269 28.8708C42.3091 28.845 42.2898 28.8154 42.2709 28.7881C42.2518 28.7607 42.2313 28.7335 42.214 28.7065C42.1967 28.6796 42.1777 28.6553 42.1592 28.6317C42.1406 28.6082 42.1196 28.5767 42.0995 28.5493L42.0438 28.4745C42.0044 28.4247 41.968 28.375 41.9293 28.3248L41.8752 28.2563C41.8524 28.2275 41.8287 28.1991 41.8054 28.1707L41.7533 28.1078C41.7292 28.0789 41.7047 28.0504 41.6803 28.0216L41.629 27.9625L41.5524 27.8757L41.507 27.8256C41.4126 27.7219 41.3159 27.6198 41.2169 27.5201L41.1735 27.4764L41.0826 27.3877L41.0381 27.345C41.0065 27.3147 40.9749 27.2848 40.9429 27.2552L40.9102 27.2252C40.7985 27.1223 40.6836 27.0221 40.5667 26.9259L40.5348 26.8993C40.4987 26.8694 40.4624 26.8398 40.4258 26.8105L40.3894 26.7814C40.35 26.7515 40.3141 26.7219 40.2758 26.6924L40.2565 26.6777C40.1273 26.579 39.9951 26.4828 39.8617 26.3904L39.8431 26.3772C39.8009 26.3484 39.7587 26.3199 39.7161 26.2919L39.688 26.2736C39.6445 26.2448 39.6007 26.2167 39.5569 26.1886L39.5494 26.1841C39.4042 26.092 39.2561 26.0039 39.1053 25.9196L39.0994 25.9158C39.0516 25.8892 39.0039 25.8634 38.9562 25.8375L38.9352 25.8263C38.681 25.6904 38.4199 25.5657 38.152 25.4521L38.1355 25.4449C38.0648 25.415 37.9938 25.3862 37.9219 25.3578L39.3347 25.3578C39.5648 25.3578 39.7516 25.1067 39.7516 24.7964C39.7516 24.4862 39.5648 24.2351 39.3347 24.2351L38.9139 24.2351C38.9399 24.1722 38.9688 24.1011 39 24.021C39.3978 23.786 40.0981 23.2853 40.7928 22.3654L40.7985 22.3583C40.8511 22.2893 40.9027 22.2181 40.9536 22.1445L40.9639 22.1299C41.0144 22.0577 41.0648 21.9833 41.1146 21.9054L41.1281 21.8848C41.1517 21.8474 41.1754 21.8099 41.1991 21.7726C41.1991 21.7726 41.1991 21.7695 41.2019 21.7677C41.2263 21.7302 41.2504 21.6891 41.2745 21.649L41.2899 21.6232C41.3104 21.5887 41.3313 21.5536 41.3514 21.5181C41.3555 21.5117 41.3594 21.5054 41.3629 21.4985C41.3862 21.4581 41.4095 21.417 41.4324 21.3755L41.4482 21.3467C41.4672 21.3123 41.4857 21.2775 41.5043 21.2422C41.5098 21.2325 41.5153 21.2224 41.5204 21.2123C41.5425 21.17 41.5646 21.1273 41.5868 21.084L41.6022 21.0536C41.6195 21.0184 41.6372 20.9825 41.6547 20.9465L41.6736 20.9092C41.6949 20.865 41.7158 20.8201 41.7367 20.7748L41.7498 20.746C41.7671 20.7086 41.7841 20.6711 41.801 20.6337L41.8212 20.5887C41.8409 20.5435 41.8607 20.4978 41.8796 20.4518C41.8832 20.4436 41.8867 20.4349 41.8899 20.4268C41.9077 20.3845 41.925 20.3414 41.9424 20.298L41.9622 20.2487C41.9783 20.2074 41.9945 20.1659 42.0103 20.1244L42.0221 20.0929C42.0406 20.0436 42.0588 19.993 42.077 19.9432L42.0959 19.8901C42.1102 19.8505 42.124 19.8101 42.1378 19.7695C42.1429 19.7546 42.1481 19.7396 42.1528 19.7247C42.1702 19.673 42.1875 19.6202 42.2045 19.5675C42.2101 19.5492 42.2159 19.53 42.2214 19.5128L42.261 19.3898C42.2661 19.3717 42.2716 19.3523 42.2767 19.3362C42.293 19.282 42.3091 19.2266 42.3245 19.1708C42.3297 19.1532 42.3344 19.1353 42.3391 19.1173C42.351 19.0742 42.3628 19.0312 42.3743 18.9874C42.3794 18.9675 42.3845 18.9478 42.39 18.9279C42.4047 18.8702 42.4193 18.8123 42.4335 18.7535L42.4453 18.7045C42.4564 18.6577 42.4674 18.6106 42.478 18.563L42.4923 18.4994C42.5057 18.4384 42.5192 18.3774 42.5317 18.3153C42.5345 18.3033 42.5369 18.2909 42.5393 18.2778C42.5503 18.2244 42.561 18.17 42.5713 18.1158C42.5756 18.0938 42.5796 18.0717 42.5839 18.0496C42.5941 17.9938 42.604 17.9373 42.6139 17.8815C42.6158 17.8695 42.6182 17.8579 42.6202 17.8463C42.6312 17.7805 42.6421 17.7141 42.6526 17.6472C42.6561 17.6248 42.6597 17.6023 42.6628 17.5795C42.6711 17.5253 42.679 17.4706 42.6869 17.4152L42.694 17.3644C42.7035 17.2954 42.7125 17.2262 42.7212 17.1559C42.724 17.1338 42.7263 17.1117 42.7291 17.0892C42.736 17.0333 42.7423 16.9772 42.748 16.9209C42.7505 16.9006 42.7528 16.8807 42.7548 16.8606C42.7625 16.7882 42.7695 16.7152 42.7761 16.6416C42.7761 16.6211 42.7797 16.6005 42.7812 16.5795C42.7864 16.5204 42.7915 16.4609 42.7959 16.401C42.7959 16.3789 42.7994 16.3568 42.801 16.3347C42.8065 16.2584 42.8116 16.1816 42.8164 16.1042C42.8164 16.0867 42.8164 16.0668 42.8191 16.0511C42.8228 15.9867 42.8263 15.922 42.829 15.8568C42.829 15.8333 42.829 15.8097 42.8322 15.7861C42.8353 15.7057 42.8385 15.6249 42.8408 15.5428C42.8408 15.5316 42.8408 15.52 42.8408 15.5084C42.843 15.4355 42.8445 15.3619 42.8456 15.2876C42.8456 15.2633 42.8456 15.239 42.8456 15.2147C42.8456 15.1348 42.8456 15.0544 42.8456 14.9736L42.8456 14.955C42.8456 14.8689 42.8456 14.7816 42.8456 14.693L42.8456 14.6182C42.8456 14.5432 42.8424 14.4647 42.8405 14.3868L42.8405 14.3446C42.8376 14.2548 42.8341 14.1638 42.8306 14.0725C42.8306 14.049 42.8282 14.0249 42.8274 14.0013C42.824 13.9246 42.8201 13.8472 42.8156 13.7693C42.8156 13.7502 42.8156 13.7319 42.8124 13.7113C42.8069 13.6178 42.8009 13.5234 42.7943 13.4283L42.7896 13.3622C42.7836 13.2828 42.7777 13.2031 42.771 13.1227C42.771 13.0995 42.7675 13.0762 42.7655 13.053C42.7572 12.9557 42.748 12.8573 42.7386 12.7585C42.7386 12.7397 42.7346 12.7211 42.733 12.702C42.7249 12.6178 42.7157 12.5328 42.7067 12.4471C42.7039 12.4213 42.7012 12.3959 42.698 12.37C42.6869 12.2682 42.675 12.166 42.6625 12.0624C42.6625 12.0497 42.6589 12.037 42.6573 12.025C42.646 11.9321 42.634 11.8389 42.6213 11.745C42.6174 11.7174 42.6139 11.6897 42.61 11.662C42.5952 11.5557 42.5801 11.4485 42.5646 11.3405C40.9856 0.684326 29.796 2.4137 29.796 2.4137L30.1544 4.70325L23.3872 11.4808L23.6829 14.0979L26.2463 15.5948C26.3607 15.3195 26.5073 15.0573 26.6837 14.8131C28.3378 13.0044 31.5466 11.5845 32.4652 11.2899C32.6492 11.2312 32.7538 11.2017 32.7538 11.2017C28.3599 16.593 28.8596 22.7695 29.0554 24.2418C28.8517 24.2792 28.6942 24.5123 28.6942 24.7968C28.6942 25.1067 28.881 25.3582 29.1111 25.3582L30.5239 25.3582C28.1742 26.2906 26.3091 28.0665 25.3357 30.2982C25.3346 30.3013 25.3333 30.3042 25.3318 30.3071C25.2599 30.4728 25.1931 30.6409 25.1312 30.8113C25.1313 30.813 25.1313 30.8148 25.1312 30.8165C25.1146 30.8629 25.0984 30.9093 25.0826 30.9561C25.0768 30.9729 25.0708 30.9897 25.0653 31.007C25.051 31.049 25.038 31.0912 25.0258 31.1339C25.0187 31.1555 25.012 31.1776 25.0052 31.1993C24.9927 31.2394 24.9805 31.2798 24.9686 31.3202L24.9473 31.3951C24.9362 31.4325 24.9252 31.4725 24.9149 31.5115C24.9073 31.5392 24.9003 31.5665 24.8932 31.5942C24.8837 31.6316 24.8738 31.6691 24.8647 31.7064C24.8557 31.7439 24.847 31.7812 24.8383 31.8209C24.8296 31.8606 24.8186 31.9071 24.8091 31.9504L24.2457 31.9504C24.1375 31.9482 24.0298 31.9664 23.929 32.0042C23.8282 32.042 23.7365 32.0984 23.6589 32.1702C23.5815 32.2421 23.5199 32.3279 23.4779 32.4225C23.4359 32.5172 23.4143 32.6189 23.4143 32.7216C23.4143 32.8243 23.4359 32.926 23.4779 33.0206C23.5199 33.1154 23.5815 33.2012 23.6589 33.2729C23.7365 33.3448 23.8282 33.4012 23.929 33.439C24.0298 33.4767 24.1375 33.495 24.2457 33.4927L44.2107 33.4927C44.319 33.495 44.4266 33.4767 44.5275 33.439C44.6282 33.4012 44.72 33.3448 44.7975 33.2729C44.8749 33.2012 44.9365 33.1154 44.9785 33.0206C45.0205 32.926 45.0421 32.8243 45.0421 32.7216C45.0421 32.6189 45.0205 32.5172 44.9785 32.4225C44.9365 32.3279 44.8749 32.2421 44.7975 32.1702C44.72 32.0984 44.6282 32.042 44.5275 32.0042C44.4266 31.9664 44.319 31.9482 44.2107 31.9504L44.2035 31.9437Z" fill="#595653" fill-opacity="1.000000" fill-rule="nonzero"/>
	<path id="Vector" d="" fill="#E7DBD0" fill-opacity="0" fill-rule="evenodd"/>
	<path id="Vector" d="M67.5912 31.9437L67.0283 31.9437C67.0283 31.9377 67.0255 31.9318 67.0244 31.9261L67.0089 31.8573C66.9991 31.812 66.9884 31.7671 66.9774 31.7225C66.9727 31.7015 66.9675 31.6807 66.9624 31.6597C66.9478 31.601 66.9324 31.5421 66.9166 31.4834L66.9119 31.4666C66.8945 31.403 66.8763 31.3396 66.8574 31.2765L66.8384 31.2155C66.8254 31.172 66.8116 31.129 66.799 31.0859C66.7915 31.0624 66.7836 31.0392 66.7761 31.016C66.7622 30.9745 66.748 30.9329 66.7334 30.8917C66.726 30.87 66.718 30.8479 66.7106 30.8267C66.6921 30.775 66.6732 30.7238 66.6537 30.6729C66.6494 30.662 66.6458 30.6515 66.6415 30.6406C66.6185 30.5807 66.5945 30.5212 66.5701 30.4617C66.5613 30.4401 66.5522 30.4187 66.5432 30.3973C66.5266 30.36 66.51 30.3187 66.493 30.2798L66.4611 30.2076C66.4445 30.1702 66.4275 30.1328 66.4102 30.0953C66.3995 30.0721 66.3884 30.0486 66.3773 30.0254C66.3572 29.9823 66.3379 29.9397 66.3154 29.8973C66.3071 29.8812 66.2996 29.8647 66.2913 29.8484C66.2633 29.7926 66.2345 29.7361 66.2053 29.6821L66.1658 29.6122L66.1101 29.5107L66.0667 29.4359C66.0486 29.4045 66.0304 29.373 66.0118 29.3416C65.9972 29.3162 65.9822 29.2908 65.9673 29.2667C65.9467 29.2327 65.9277 29.1995 65.9053 29.1658L65.8484 29.0745C65.8215 29.0325 65.7947 28.9902 65.7671 28.9486C65.7498 28.9225 65.7323 28.8966 65.7146 28.8708C65.6968 28.845 65.6775 28.8154 65.6586 28.7881C65.6395 28.7607 65.619 28.7335 65.6017 28.7065C65.5844 28.6796 65.5654 28.6553 65.5469 28.6317C65.5283 28.6082 65.5073 28.5767 65.4872 28.5493L65.4315 28.4745C65.3921 28.4247 65.3557 28.375 65.317 28.3248L65.2629 28.2563C65.2401 28.2275 65.2164 28.1991 65.1931 28.1707L65.141 28.1078C65.1169 28.0789 65.0924 28.0504 65.068 28.0216L65.0167 27.9625L64.9401 27.8757L64.8947 27.8256C64.8003 27.7219 64.7036 27.6198 64.6046 27.5201L64.5612 27.4764L64.4703 27.3877L64.4258 27.345C64.3942 27.3147 64.3625 27.2848 64.3306 27.2552L64.2979 27.2252C64.1862 27.1223 64.0713 27.0221 63.9543 26.9259L63.9225 26.8993C63.8864 26.8694 63.8501 26.8398 63.8135 26.8105L63.7771 26.7814C63.7377 26.7515 63.7018 26.7219 63.6635 26.6924L63.6442 26.6777C63.515 26.579 63.3828 26.4828 63.2494 26.3904L63.2308 26.3772C63.1886 26.3484 63.1464 26.3199 63.1038 26.2919L63.0757 26.2736C63.0322 26.2448 62.9884 26.2167 62.9446 26.1886L62.9371 26.1841C62.7919 26.092 62.6438 26.0039 62.493 25.9196L62.4871 25.9158C62.4393 25.8892 62.3916 25.8634 62.3439 25.8375L62.3229 25.8263C62.0687 25.6904 61.8076 25.5657 61.5397 25.4521L61.5232 25.4449C61.4525 25.415 61.3815 25.3862 61.3096 25.3578L62.7224 25.3578C62.9525 25.3578 63.1393 25.1067 63.1393 24.7964C63.1393 24.4862 62.9525 24.2351 62.7224 24.2351L62.3016 24.2351C62.3276 24.1722 62.3564 24.1011 62.3877 24.021C62.7855 23.786 63.4858 23.2853 64.1805 22.3654L64.1862 22.3583C64.2388 22.2893 64.2904 22.2181 64.3413 22.1445L64.3516 22.1299C64.4021 22.0577 64.4525 21.9833 64.5023 21.9054L64.5157 21.8848C64.5394 21.8474 64.5631 21.8099 64.5868 21.7726C64.5868 21.7726 64.5868 21.7695 64.5896 21.7677C64.614 21.7302 64.6381 21.6891 64.6622 21.649L64.6776 21.6232C64.6981 21.5887 64.719 21.5536 64.7391 21.5181C64.7432 21.5117 64.7471 21.5054 64.7506 21.4985C64.7739 21.4581 64.7972 21.417 64.8201 21.3755L64.8359 21.3467C64.8549 21.3123 64.8734 21.2775 64.892 21.2422C64.8975 21.2325 64.903 21.2224 64.9081 21.2123C64.9302 21.17 64.9523 21.1273 64.9745 21.084L64.9899 21.0536C65.0072 21.0184 65.0249 20.9825 65.0424 20.9465L65.0613 20.9092C65.0826 20.865 65.1035 20.8201 65.1244 20.7748L65.1375 20.746C65.1548 20.7086 65.1718 20.6711 65.1887 20.6337L65.2089 20.5887C65.2286 20.5435 65.2484 20.4978 65.2673 20.4518C65.2709 20.4436 65.2744 20.4349 65.2776 20.4268C65.2954 20.3845 65.3127 20.3414 65.3301 20.298L65.3499 20.2487C65.366 20.2074 65.3822 20.1659 65.3979 20.1244L65.4098 20.0929C65.4283 20.0436 65.4465 19.993 65.4647 19.9432L65.4836 19.8901C65.4979 19.8505 65.5117 19.8101 65.5255 19.7695C65.5306 19.7546 65.5358 19.7396 65.5405 19.7247C65.5579 19.673 65.5752 19.6202 65.5922 19.5675C65.5978 19.5492 65.6036 19.53 65.6091 19.5128L65.6487 19.3898C65.6538 19.3717 65.6593 19.3523 65.6644 19.3362C65.6807 19.282 65.6968 19.2266 65.7122 19.1708C65.7174 19.1532 65.722 19.1353 65.7268 19.1173C65.7386 19.0742 65.7505 19.0312 65.762 18.9874C65.7671 18.9675 65.7722 18.9478 65.7777 18.9279C65.7924 18.8702 65.807 18.8123 65.8212 18.7535L65.833 18.7045C65.8441 18.6577 65.8551 18.6106 65.8657 18.563L65.88 18.4994C65.8934 18.4384 65.9069 18.3774 65.9194 18.3153C65.9222 18.3033 65.9246 18.2909 65.927 18.2778C65.938 18.2244 65.9487 18.17 65.959 18.1158C65.9633 18.0938 65.9673 18.0717 65.9716 18.0496C65.9818 17.9938 65.9917 17.9373 66.0016 17.8815C66.0035 17.8695 66.0059 17.8579 66.0079 17.8463C66.0189 17.7805 66.0298 17.7141 66.0403 17.6472C66.0438 17.6248 66.0474 17.6023 66.0505 17.5795C66.0588 17.5253 66.0667 17.4706 66.0746 17.4152L66.0817 17.3644C66.0912 17.2954 66.1002 17.2262 66.1089 17.1559C66.1117 17.1338 66.114 17.1117 66.1168 17.0892C66.1237 17.0333 66.13 16.9772 66.1357 16.9209C66.1382 16.9006 66.1405 16.8807 66.1425 16.8606C66.1501 16.7882 66.1572 16.7152 66.1638 16.6416C66.1638 16.6211 66.1674 16.6005 66.1689 16.5795C66.1741 16.5204 66.1792 16.4609 66.1836 16.401C66.1836 16.3789 66.1871 16.3568 66.1887 16.3347C66.1942 16.2584 66.1993 16.1816 66.2041 16.1042C66.2041 16.0867 66.2041 16.0668 66.2068 16.0511C66.2104 15.9867 66.214 15.922 66.2167 15.8568C66.2167 15.8333 66.2167 15.8097 66.2198 15.7861C66.223 15.7057 66.2262 15.6249 66.2285 15.5428C66.2285 15.5316 66.2285 15.52 66.2285 15.5084C66.2307 15.4355 66.2322 15.3619 66.2333 15.2876C66.2333 15.2633 66.2333 15.239 66.2333 15.2147C66.2333 15.1348 66.2333 15.0544 66.2333 14.9736L66.2333 14.955C66.2333 14.8689 66.2333 14.7816 66.2333 14.693L66.2333 14.6182C66.2333 14.5432 66.2301 14.4647 66.2281 14.3868L66.2281 14.3446C66.2253 14.2548 66.2218 14.1638 66.2183 14.0725C66.2183 14.049 66.2159 14.0249 66.2151 14.0013C66.2117 13.9246 66.2078 13.8472 66.2032 13.7693C66.2032 13.7502 66.2032 13.7319 66.2001 13.7113C66.1946 13.6178 66.1886 13.5234 66.182 13.4283L66.1772 13.3622C66.1713 13.2828 66.1654 13.2031 66.1587 13.1227C66.1587 13.0995 66.1552 13.0762 66.1532 13.053C66.1449 12.9557 66.1357 12.8573 66.1263 12.7585C66.1263 12.7397 66.1223 12.7211 66.1207 12.702C66.1125 12.6178 66.1034 12.5328 66.0944 12.4471C66.0916 12.4213 66.0889 12.3959 66.0857 12.37C66.0746 12.2682 66.0627 12.166 66.0502 12.0624C66.0502 12.0497 66.0466 12.037 66.045 12.025C66.0337 11.9321 66.0217 11.8389 66.009 11.745C66.0051 11.7174 66.0016 11.6897 65.9977 11.662C65.9829 11.5557 65.9678 11.4485 65.9523 11.3405C64.3733 0.684326 53.1837 2.4137 53.1837 2.4137L53.5421 4.70325L46.7749 11.4808L47.0706 14.0979L49.634 15.5948C49.7484 15.3195 49.895 15.0573 50.0714 14.8131C51.7255 13.0044 54.9343 11.5845 55.8529 11.2899C56.0369 11.2312 56.1415 11.2017 56.1415 11.2017C51.7476 16.593 52.2473 22.7695 52.4431 24.2418C52.2394 24.2792 52.0819 24.5123 52.0819 24.7968C52.0819 25.1067 52.2687 25.3582 52.4988 25.3582L53.9116 25.3582C51.5619 26.2906 49.6968 28.0665 48.7234 30.2982C48.7223 30.3013 48.7209 30.3042 48.7195 30.3071C48.6476 30.4728 48.5808 30.6409 48.5189 30.8113C48.519 30.813 48.519 30.8148 48.5189 30.8165C48.5023 30.8629 48.4861 30.9093 48.4703 30.9561C48.4645 30.9729 48.4585 30.9897 48.453 31.007C48.4387 31.049 48.4257 31.0912 48.4135 31.1339C48.4064 31.1555 48.3997 31.1776 48.3929 31.1993C48.3804 31.2394 48.3682 31.2798 48.3563 31.3202L48.335 31.3951C48.3239 31.4325 48.3129 31.4725 48.3026 31.5115C48.295 31.5392 48.288 31.5665 48.2809 31.5942C48.2714 31.6316 48.2615 31.6691 48.2524 31.7064C48.2434 31.7439 48.2347 31.7812 48.226 31.8209C48.2173 31.8606 48.2063 31.9071 48.1968 31.9504L47.6334 31.9504C47.5251 31.9482 47.4175 31.9664 47.3167 32.0042C47.2159 32.042 47.1241 32.0984 47.0466 32.1702C46.9692 32.2421 46.9076 32.3279 46.8656 32.4225C46.8236 32.5172 46.802 32.6189 46.802 32.7216C46.802 32.8243 46.8236 32.926 46.8656 33.0206C46.9076 33.1154 46.9692 33.2012 47.0466 33.2729C47.1241 33.3448 47.2159 33.4012 47.3167 33.439C47.4175 33.4767 47.5251 33.495 47.6334 33.4927L67.5984 33.4927C67.7067 33.495 67.8143 33.4767 67.9152 33.439C68.0159 33.4012 68.1077 33.3448 68.1852 33.2729C68.2626 33.2012 68.3242 33.1154 68.3662 33.0206C68.4082 32.926 68.4298 32.8243 68.4298 32.7216C68.4298 32.6189 68.4082 32.5172 68.3662 32.4225C68.3242 32.3279 68.2626 32.2421 68.1852 32.1702C68.1077 32.0984 68.0159 32.042 67.9152 32.0042C67.8143 31.9664 67.7067 31.9482 67.5984 31.9504L67.5912 31.9437Z" fill="#595653" fill-opacity="1.000000" fill-rule="nonzero"/>
	<path id="Vector" d="" fill="#E7DBD0" fill-opacity="0" fill-rule="evenodd"/>
	<path id="Vector" d="M90.9784 31.9437L90.4155 31.9437C90.4155 31.9377 90.4127 31.9318 90.4116 31.9261L90.3961 31.8573C90.3864 31.812 90.3756 31.7671 90.3646 31.7225C90.3599 31.7015 90.3547 31.6807 90.3496 31.6597C90.335 31.601 90.3196 31.5421 90.3038 31.4834L90.2991 31.4666C90.2817 31.403 90.2635 31.3396 90.2446 31.2765L90.2256 31.2155C90.2126 31.172 90.1989 31.129 90.1862 31.0859C90.1787 31.0624 90.1708 31.0392 90.1633 31.016C90.1494 30.9745 90.1353 30.9329 90.1206 30.8917C90.1132 30.87 90.1052 30.8479 90.0978 30.8267C90.0793 30.775 90.0604 30.7238 90.0409 30.6729C90.0366 30.662 90.033 30.6515 90.0287 30.6406C90.0057 30.5807 89.9817 30.5212 89.9573 30.4617C89.9485 30.4401 89.9395 30.4187 89.9304 30.3973C89.9138 30.36 89.8972 30.3187 89.8802 30.2798L89.8483 30.2076C89.8317 30.1702 89.8147 30.1328 89.7974 30.0953C89.7867 30.0721 89.7756 30.0486 89.7645 30.0254C89.7444 29.9823 89.7251 29.9397 89.7026 29.8973C89.6943 29.8812 89.6868 29.8647 89.6785 29.8484C89.6505 29.7926 89.6217 29.7361 89.5925 29.6821L89.553 29.6122L89.4973 29.5107L89.4539 29.4359C89.4358 29.4045 89.4176 29.373 89.399 29.3416C89.3844 29.3162 89.3694 29.2908 89.3545 29.2667C89.3339 29.2327 89.3149 29.1995 89.2925 29.1658L89.2356 29.0745C89.2087 29.0325 89.1819 28.9902 89.1543 28.9486C89.137 28.9225 89.1195 28.8966 89.1018 28.8708C89.084 28.845 89.0647 28.8154 89.0458 28.7881C89.0267 28.7607 89.0062 28.7335 88.9889 28.7065C88.9716 28.6796 88.9526 28.6553 88.9341 28.6317C88.9155 28.6082 88.8945 28.5767 88.8744 28.5493L88.8187 28.4745C88.7793 28.4247 88.7429 28.375 88.7042 28.3248L88.6501 28.2563C88.6273 28.2275 88.6036 28.1991 88.5803 28.1707L88.5282 28.1078C88.5042 28.0789 88.4796 28.0504 88.4552 28.0216L88.4039 27.9625L88.3273 27.8757L88.2819 27.8256C88.1875 27.7219 88.0908 27.6198 87.9918 27.5201L87.9484 27.4764L87.8575 27.3877L87.813 27.345C87.7814 27.3147 87.7498 27.2848 87.7178 27.2552L87.6851 27.2252C87.5734 27.1223 87.4585 27.0221 87.3416 26.9259L87.3097 26.8993C87.2736 26.8694 87.2373 26.8398 87.2007 26.8105L87.1643 26.7814C87.1249 26.7515 87.089 26.7219 87.0507 26.6924L87.0314 26.6777C86.9022 26.579 86.77 26.4828 86.6366 26.3904L86.618 26.3772C86.5758 26.3484 86.5336 26.3199 86.491 26.2919L86.4629 26.2736C86.4194 26.2448 86.3756 26.2167 86.3318 26.1886L86.3243 26.1841C86.1791 26.092 86.031 26.0039 85.8802 25.9196L85.8743 25.9158C85.8265 25.8892 85.7788 25.8634 85.7311 25.8375L85.7101 25.8263C85.4559 25.6904 85.1948 25.5657 84.9269 25.4521L84.9104 25.4449C84.8397 25.415 84.7687 25.3862 84.6968 25.3578L86.1096 25.3578C86.3397 25.3578 86.5265 25.1067 86.5265 24.7964C86.5265 24.4862 86.3397 24.2351 86.1096 24.2351L85.6888 24.2351C85.7148 24.1722 85.7437 24.1011 85.7749 24.021C86.1727 23.786 86.873 23.2853 87.5677 22.3654L87.5734 22.3583C87.626 22.2893 87.6776 22.2181 87.7285 22.1445L87.7388 22.1299C87.7893 22.0577 87.8397 21.9833 87.8895 21.9054L87.903 21.8848C87.9266 21.8474 87.9503 21.8099 87.974 21.7726C87.974 21.7726 87.974 21.7695 87.9768 21.7677C88.0012 21.7302 88.0253 21.6891 88.0494 21.649L88.0648 21.6232C88.0853 21.5887 88.1062 21.5536 88.1263 21.5181C88.1304 21.5117 88.1343 21.5054 88.1378 21.4985C88.1611 21.4581 88.1844 21.417 88.2073 21.3755L88.2231 21.3467C88.2421 21.3123 88.2606 21.2775 88.2792 21.2422C88.2847 21.2325 88.2902 21.2224 88.2953 21.2123C88.3174 21.17 88.3395 21.1273 88.3617 21.084L88.3771 21.0536C88.3944 21.0184 88.4121 20.9825 88.4296 20.9465L88.4485 20.9092C88.4698 20.865 88.4907 20.8201 88.5116 20.7748L88.5247 20.746C88.542 20.7086 88.559 20.6711 88.5759 20.6337L88.5961 20.5887C88.6158 20.5435 88.6356 20.4978 88.6545 20.4518C88.6581 20.4436 88.6616 20.4349 88.6648 20.4268C88.6826 20.3845 88.7 20.3414 88.7173 20.298L88.7371 20.2487C88.7532 20.2074 88.7694 20.1659 88.7852 20.1244L88.797 20.0929C88.8156 20.0436 88.8337 19.993 88.8519 19.9432L88.8708 19.8901C88.8851 19.8505 88.8989 19.8101 88.9127 19.7695C88.9178 19.7546 88.923 19.7396 88.9277 19.7247C88.9451 19.673 88.9624 19.6202 88.9794 19.5675C88.985 19.5492 88.9908 19.53 88.9963 19.5128L89.0359 19.3898C89.041 19.3717 89.0465 19.3523 89.0516 19.3362C89.0679 19.282 89.084 19.2266 89.0994 19.1708C89.1046 19.1532 89.1093 19.1353 89.114 19.1173C89.1259 19.0742 89.1377 19.0312 89.1492 18.9874C89.1543 18.9675 89.1594 18.9478 89.1649 18.9279C89.1796 18.8702 89.1942 18.8123 89.2084 18.7535L89.2202 18.7045C89.2313 18.6577 89.2423 18.6106 89.2529 18.563L89.2672 18.4994C89.2806 18.4384 89.2941 18.3774 89.3066 18.3153C89.3094 18.3033 89.3118 18.2909 89.3142 18.2778C89.3252 18.2244 89.3359 18.17 89.3462 18.1158C89.3505 18.0938 89.3545 18.0717 89.3588 18.0496C89.369 17.9938 89.3789 17.9373 89.3888 17.8815C89.3907 17.8695 89.3931 17.8579 89.3951 17.8463C89.4061 17.7805 89.417 17.7141 89.4275 17.6472C89.431 17.6248 89.4346 17.6023 89.4377 17.5795C89.446 17.5253 89.4539 17.4706 89.4618 17.4152L89.4689 17.3644C89.4784 17.2954 89.4874 17.2262 89.4961 17.1559C89.4989 17.1338 89.5012 17.1117 89.504 17.0892C89.5109 17.0333 89.5172 16.9772 89.5229 16.9209C89.5254 16.9006 89.5277 16.8807 89.5297 16.8606C89.5374 16.7882 89.5444 16.7152 89.551 16.6416C89.551 16.6211 89.5546 16.6005 89.5562 16.5795C89.5613 16.5204 89.5664 16.4609 89.5708 16.401C89.5708 16.3789 89.5743 16.3568 89.5759 16.3347C89.5814 16.2584 89.5865 16.1816 89.5913 16.1042C89.5913 16.0867 89.5913 16.0668 89.594 16.0511C89.5977 15.9867 89.6012 15.922 89.6039 15.8568C89.6039 15.8333 89.6039 15.8097 89.6071 15.7861C89.6102 15.7057 89.6134 15.6249 89.6157 15.5428C89.6157 15.5316 89.6157 15.52 89.6157 15.5084C89.6179 15.4355 89.6194 15.3619 89.6205 15.2876C89.6205 15.2633 89.6205 15.239 89.6205 15.2147C89.6205 15.1348 89.6205 15.0544 89.6205 14.9736L89.6205 14.955C89.6205 14.8689 89.6205 14.7816 89.6205 14.693L89.6205 14.6182C89.6205 14.5432 89.6173 14.4647 89.6154 14.3868L89.6154 14.3446C89.6125 14.2548 89.609 14.1638 89.6055 14.0725C89.6055 14.049 89.6031 14.0249 89.6023 14.0013C89.5989 13.9246 89.595 13.8472 89.5905 13.7693C89.5905 13.7502 89.5905 13.7319 89.5873 13.7113C89.5818 13.6178 89.5758 13.5234 89.5692 13.4283L89.5645 13.3622C89.5585 13.2828 89.5526 13.2031 89.5459 13.1227C89.5459 13.0995 89.5424 13.0762 89.5404 13.053C89.5321 12.9557 89.5229 12.8573 89.5135 12.7585C89.5135 12.7397 89.5095 12.7211 89.5079 12.702C89.4998 12.6178 89.4906 12.5328 89.4816 12.4471C89.4788 12.4213 89.4761 12.3959 89.4729 12.37C89.4618 12.2682 89.45 12.166 89.4374 12.0624C89.4374 12.0497 89.4338 12.037 89.4323 12.025C89.4209 11.9321 89.4089 11.8389 89.3962 11.745C89.3923 11.7174 89.3888 11.6897 89.3849 11.662C89.3701 11.5557 89.355 11.4485 89.3395 11.3405C87.7605 0.684326 76.5709 2.4137 76.5709 2.4137L76.9293 4.70325L70.1621 11.4808L70.4578 14.0979L73.0212 15.5948C73.1356 15.3195 73.2822 15.0573 73.4586 14.8131C75.1127 13.0044 78.3215 11.5845 79.2401 11.2899C79.4241 11.2312 79.5287 11.2017 79.5287 11.2017C75.1348 16.593 75.6345 22.7695 75.8303 24.2418C75.6266 24.2792 75.4691 24.5123 75.4691 24.7968C75.4691 25.1067 75.6559 25.3582 75.886 25.3582L77.2988 25.3582C74.9491 26.2906 73.084 28.0665 72.1106 30.2982C72.1095 30.3013 72.1082 30.3042 72.1067 30.3071C72.0348 30.4728 71.968 30.6409 71.9061 30.8113C71.9062 30.813 71.9062 30.8148 71.9061 30.8165C71.8895 30.8629 71.8733 30.9093 71.8575 30.9561C71.8517 30.9729 71.8457 30.9897 71.8402 31.007C71.8259 31.049 71.8129 31.0912 71.8007 31.1339C71.7936 31.1555 71.7869 31.1776 71.7802 31.1993C71.7676 31.2394 71.7554 31.2798 71.7435 31.3202L71.7222 31.3951C71.7111 31.4325 71.7001 31.4725 71.6898 31.5115C71.6823 31.5392 71.6752 31.5665 71.6681 31.5942C71.6586 31.6316 71.6487 31.6691 71.6396 31.7064C71.6306 31.7439 71.6219 31.7812 71.6132 31.8209C71.6045 31.8606 71.5935 31.9071 71.584 31.9504L71.0206 31.9504C70.9124 31.9482 70.8047 31.9664 70.7039 32.0042C70.6031 32.042 70.5114 32.0984 70.4338 32.1702C70.3564 32.2421 70.2948 32.3279 70.2528 32.4225C70.2108 32.5172 70.1892 32.6189 70.1892 32.7216C70.1892 32.8243 70.2108 32.926 70.2528 33.0206C70.2948 33.1154 70.3564 33.2012 70.4338 33.2729C70.5114 33.3448 70.6031 33.4012 70.7039 33.439C70.8047 33.4767 70.9124 33.495 71.0206 33.4927L90.9856 33.4927C91.0939 33.495 91.2015 33.4767 91.3024 33.439C91.4031 33.4012 91.4949 33.3448 91.5724 33.2729C91.6498 33.2012 91.7114 33.1154 91.7534 33.0206C91.7954 32.926 91.817 32.8243 91.817 32.7216C91.817 32.6189 91.7954 32.5172 91.7534 32.4225C91.7114 32.3279 91.6498 32.2421 91.5724 32.1702C91.4949 32.0984 91.4031 32.042 91.3024 32.0042C91.2015 31.9664 91.0939 31.9482 90.9856 31.9504L90.9784 31.9437Z" fill="#595653" fill-opacity="1.000000" fill-rule="nonzero"/>
	<path id="Vector" d="" fill="#E7DBD0" fill-opacity="0" fill-rule="evenodd"/>
	<path id="Клубчетырех коней" d="M99.3345 15.3275L99.3345 3.67159L102.332 3.67159L102.332 8.284L103.164 8.284L106.728 3.67159L109.991 3.67159L105.495 9.11656L110.158 15.3275L106.661 15.3275L103.164 10.3821L102.332 10.3821L102.332 15.3275L99.3345 15.3275ZM111.823 15.5439C111.734 15.5439 111.607 15.5384 111.44 15.5273C111.285 15.5273 111.162 15.5162 111.074 15.494L111.074 12.8631C111.107 12.8742 111.19 12.8797 111.323 12.8797C111.545 12.8797 111.734 12.852 111.89 12.7965C112.056 12.7299 112.195 12.5967 112.306 12.3969C112.417 12.1859 112.511 11.8807 112.589 11.481C112.678 11.0814 112.739 10.5486 112.772 9.88252C112.805 9.20537 112.822 8.35615 112.822 7.33487L112.822 3.67159L121.647 3.67159L121.647 15.3275L118.633 15.3275L118.633 6.11933L115.619 6.11933L115.619 7.6679C115.619 9.0555 115.564 10.2211 115.453 11.1647C115.342 12.0971 115.175 12.852 114.953 13.4292C114.743 14.0065 114.482 14.4505 114.171 14.7613C113.86 15.0611 113.505 15.2664 113.105 15.3774C112.717 15.4884 112.289 15.5439 111.823 15.5439ZM126.317 15.5439C126.195 15.5439 126.073 15.5384 125.951 15.5273C125.84 15.5273 125.74 15.5106 125.651 15.4773L125.651 12.9963C125.74 13.0074 125.829 13.0185 125.918 13.0296C126.007 13.0407 126.112 13.0463 126.234 13.0463C126.556 13.0463 126.806 13.0241 126.983 12.9797C127.161 12.9241 127.3 12.8353 127.4 12.7132C127.5 12.58 127.583 12.4024 127.649 12.1804L122.97 3.67159L126.018 3.67159L129.115 9.58279L131.546 3.67159L134.477 3.67159L130.58 12.4801C130.325 13.0574 130.069 13.5402 129.814 13.9288C129.57 14.3173 129.287 14.6337 128.965 14.8779C128.654 15.111 128.282 15.2775 127.849 15.3774C127.427 15.4884 126.917 15.5439 126.317 15.5439ZM135.808 15.3275L135.808 3.67159L144.383 3.67159L144.383 6.13598L138.805 6.13598L138.805 7.86771L140.72 7.86771C142.341 7.86771 143.534 8.20074 144.3 8.86679C145.077 9.52174 145.466 10.4043 145.466 11.5143C145.466 12.7132 145.077 13.6513 144.3 14.3284C143.534 14.9945 142.341 15.3275 140.72 15.3275L135.808 15.3275ZM138.805 12.8631L140.387 12.8631C141.109 12.8631 141.619 12.7465 141.919 12.5134C142.219 12.2692 142.369 11.9362 142.369 11.5143C142.369 11.0925 142.219 10.765 141.919 10.5319C141.619 10.2877 141.109 10.1656 140.387 10.1656L138.805 10.1656L138.805 12.8631ZM105.396 33.3275L105.396 28.6818C105.107 28.8705 104.724 29.0426 104.247 29.198C103.78 29.3423 103.225 29.4144 102.582 29.4144C101.372 29.4144 100.456 29.1147 99.8341 28.5153C99.2235 27.9047 98.9183 26.9278 98.9183 25.5846L98.9183 21.6716L101.915 21.6716L101.915 25.0851C101.915 25.7401 102.054 26.2118 102.332 26.5005C102.609 26.778 102.998 26.9167 103.497 26.9167C103.952 26.9167 104.335 26.8668 104.646 26.7669C104.957 26.6559 105.207 26.5393 105.396 26.4172L105.396 21.6716L108.409 21.6716L108.409 33.3275L105.396 33.3275ZM110.733 33.3275L110.733 21.6716L119.226 21.6716L119.226 23.9695L113.731 23.9695L113.731 26.2507L118.726 26.2507L118.726 28.4154L113.731 28.4154L113.731 31.0296L119.226 31.0296L119.226 33.3275L110.733 33.3275ZM124.213 33.3275L124.213 24.136L120.633 24.136L120.633 21.6716L130.79 21.6716L130.79 24.136L127.21 24.136L127.21 33.3275L124.213 33.3275ZM132.296 33.3275L132.296 21.6716L135.293 21.6716L135.293 25.5347L136.708 25.5347C138.329 25.5347 139.522 25.8844 140.288 26.5837C141.065 27.2831 141.454 28.2322 141.454 29.4311C141.454 30.63 141.065 31.5791 140.288 32.2785C139.522 32.9778 138.329 33.3275 136.708 33.3275L132.296 33.3275ZM135.293 30.8631L136.375 30.8631C137.074 30.8631 137.58 30.7299 137.89 30.4635C138.201 30.197 138.357 29.8529 138.357 29.4311C138.357 29.0093 138.201 28.6651 137.89 28.3987C137.58 28.1323 137.074 27.9991 136.375 27.9991L135.293 27.9991L135.293 30.8631ZM142.286 33.3275L142.286 21.6716L145.284 21.6716L145.284 33.3275L142.286 33.3275ZM147.613 33.3275L147.613 21.6716L152.359 21.6716C153.447 21.6716 154.341 21.8326 155.04 22.1545C155.739 22.4653 156.255 22.9204 156.588 23.5199C156.933 24.1082 157.105 24.8187 157.105 25.6512C157.105 26.4727 156.933 27.1832 156.588 27.7826C156.255 28.3821 155.739 28.8427 155.04 29.1647C154.341 29.4755 153.447 29.6309 152.359 29.6309L150.611 29.6309L150.611 33.3275L147.613 33.3275ZM150.611 27.1665L152.026 27.1665C152.792 27.1665 153.33 27.0389 153.641 26.7835C153.952 26.5282 154.107 26.1508 154.107 25.6512C154.107 25.1517 153.952 24.7743 153.641 24.519C153.33 24.2636 152.792 24.136 152.026 24.136L150.611 24.136L150.611 27.1665ZM158.768 33.3275L158.768 21.6716L167.261 21.6716L167.261 23.9695L161.766 23.9695L161.766 26.2507L166.761 26.2507L166.761 28.4154L161.766 28.4154L161.766 31.0296L167.261 31.0296L167.261 33.3275L158.768 33.3275ZM168.422 33.3275L172.219 27.2498L168.589 21.6716L171.902 21.6716L174.184 25.2017L176.498 21.6716L179.745 21.6716L176.132 27.2165L179.912 33.3275L176.565 33.3275L174.134 29.2479L171.703 33.3275L168.422 33.3275ZM185.652 33.3275L185.652 21.6716L188.649 21.6716L188.649 26.284L189.482 26.284L193.045 21.6716L196.309 21.6716L191.813 27.1166L196.475 33.3275L192.978 33.3275L189.482 28.3821L188.649 28.3821L188.649 33.3275L185.652 33.3275ZM202.979 33.5439C202.224 33.5439 201.502 33.4329 200.814 33.2109C200.126 32.9889 199.521 32.6392 198.999 32.1619C198.478 31.6846 198.067 31.0685 197.767 30.3136C197.467 29.5476 197.317 28.6374 197.317 27.5828L197.317 27.2498C197.317 26.2285 197.467 25.3515 197.767 24.6189C198.067 23.8862 198.478 23.2868 198.999 22.8205C199.521 22.3543 200.126 22.0102 200.814 21.7882C201.502 21.5661 202.224 21.4551 202.979 21.4551C203.756 21.4551 204.483 21.5661 205.16 21.7882C205.837 22.0102 206.437 22.3543 206.959 22.8205C207.48 23.2868 207.891 23.8862 208.191 24.6189C208.49 25.3515 208.64 26.2285 208.64 27.2498L208.64 27.5828C208.64 28.6374 208.49 29.5476 208.191 30.3136C207.891 31.0685 207.48 31.6846 206.959 32.1619C206.437 32.6392 205.837 32.9889 205.16 33.2109C204.483 33.4329 203.756 33.5439 202.979 33.5439ZM202.962 31.0463C203.417 31.0463 203.839 30.9464 204.228 30.7465C204.616 30.5356 204.927 30.1859 205.16 29.6975C205.404 29.198 205.527 28.4931 205.527 27.5828L205.527 27.2498C205.527 26.3839 205.404 25.7123 205.16 25.235C204.927 24.7576 204.616 24.4246 204.228 24.2359C203.839 24.0472 203.417 23.9528 202.962 23.9528C202.529 23.9528 202.119 24.0472 201.73 24.2359C201.342 24.4246 201.025 24.7576 200.781 25.235C200.537 25.7123 200.415 26.3839 200.415 27.2498L200.415 27.5828C200.415 28.4931 200.537 29.198 200.781 29.6975C201.025 30.1859 201.342 30.5356 201.73 30.7465C202.119 30.9464 202.529 31.0463 202.962 31.0463ZM210.547 33.3275L210.547 21.6716L213.545 21.6716L213.545 26.1008L217.874 26.1008L217.874 21.6716L220.871 21.6716L220.871 33.3275L217.874 33.3275L217.874 28.5652L213.545 28.5652L213.545 33.3275L210.547 33.3275ZM223.198 33.3275L223.198 21.6716L231.691 21.6716L231.691 23.9695L226.196 23.9695L226.196 26.2507L231.191 26.2507L231.191 28.4154L226.196 28.4154L226.196 31.0296L231.691 31.0296L231.691 33.3275L223.198 33.3275ZM233.606 33.3275L233.606 21.6716L236.603 21.6716L236.603 28.6651L241.182 21.6716L243.929 21.6716L243.929 33.3275L240.932 33.3275L240.932 26.334L236.353 33.3275L233.606 33.3275ZM238.767 21.0222C237.99 21.0222 237.352 20.9167 236.853 20.7058C236.364 20.4838 236.003 20.1619 235.77 19.74C235.548 19.3182 235.437 18.7909 235.437 18.1582L237.868 18.1582C237.868 18.6244 237.935 18.9408 238.068 19.1073C238.212 19.2627 238.445 19.3404 238.767 19.3404C239.089 19.3404 239.317 19.2627 239.45 19.1073C239.594 18.9408 239.667 18.6244 239.667 18.1582L242.098 18.1582C242.098 18.7909 241.981 19.3182 241.748 19.74C241.526 20.1619 241.171 20.4838 240.682 20.7058C240.194 20.9167 239.556 21.0222 238.767 21.0222Z" fill="#595653" fill-opacity="1.000000" fill-rule="evenodd"/>
</svg>
